<?xml version="1.0" standalone="no"?>
<!DOCTYPE svg PUBLIC "-//W3C//DTD SVG 20010904//EN"
 "http://www.w3.org/TR/2001/REC-SVG-20010904/DTD/svg10.dtd">
<svg version="1.0" xmlns="http://www.w3.org/2000/svg"
 width="700.000000pt" height="700.000000pt" viewBox="0 0 700.000000 700.000000"
 preserveAspectRatio="xMidYMid meet">
<metadata>
Created by potrace 1.11, written by Peter Selinger 2001-2013
</metadata>
<g transform="translate(0.000000,700.000000) scale(0.100000,-0.100000)"
fill="#000000" stroke="none">
<path d="M2041 5541 l-875 -875 1 -1785 c0 -1638 1 -1791 17 -1850 56 -217
236 -391 447 -435 52 -10 419 -12 1894 -11 1827 2 1830 2 1893 23 196 64 348
225 398 422 16 60 17 256 17 2470 0 2190 -1 2411 -16 2467 -53 201 -199 357
-397 424 l-65 22 -1219 2 -1219 2 -876 -876z m3207 -2040 l-3 -2335 -1735 -1
c-954 0 -1741 1 -1747 3 -10 3 -13 338 -13 1631 l0 1626 703 701 c386 386 708
703 715 705 6 2 478 4 1047 4 l1035 0 -2 -2334z"/>
<path d="M2627 4952 c-3 -6 -1 -1137 2 -1154 0 -5 132 -8 291 -8 l290 0 0 584
0 585 -290 0 c-159 -1 -291 -4 -293 -7z"/>
<path d="M3500 4375 l0 -585 289 0 c222 0 290 3 293 13 3 10 2 1128 -1 1149
-1 3 -131 6 -291 7 l-290 0 0 -584z"/>
<path d="M4377 4952 c-2 -4 -3 -266 -3 -582 l1 -575 292 -3 291 -2 -1 582 -2
583 -287 2 c-158 1 -289 -1 -291 -5z"/>
</g>
</svg>
